<mxfile host="app.diagrams.net" modified="2022-10-26T03:55:12.993Z" agent="5.0 (Windows NT 10.0; Win64; x64) AppleWebKit/537.36 (KHTML, like Gecko) Chrome/106.0.0.0 Safari/537.36" etag="lUvY8pYfi9UtERFAFmpr" version="20.4.0" type="github">
  <diagram id="C5RBs43oDa-KdzZeNtuy" name="Page-1">
    <mxGraphModel dx="802" dy="490" grid="1" gridSize="10" guides="1" tooltips="1" connect="1" arrows="1" fold="1" page="1" pageScale="1" pageWidth="827" pageHeight="1169" math="0" shadow="0">
      <root>
        <mxCell id="WIyWlLk6GJQsqaUBKTNV-0" />
        <mxCell id="WIyWlLk6GJQsqaUBKTNV-1" parent="WIyWlLk6GJQsqaUBKTNV-0" />
        <mxCell id="zkfFHV4jXpPFQw0GAbJ--16" value="" style="endArrow=block;endSize=10;endFill=0;shadow=0;strokeWidth=1;rounded=0;edgeStyle=elbowEdgeStyle;elbow=vertical;" parent="WIyWlLk6GJQsqaUBKTNV-1" edge="1">
          <mxGeometry width="160" relative="1" as="geometry">
            <mxPoint x="340" y="389.28571428571433" as="sourcePoint" />
            <mxPoint x="340" y="390.42857142857144" as="targetPoint" />
          </mxGeometry>
        </mxCell>
        <mxCell id="SrfCFyk_OWExMf_Ezm0Z-6" style="edgeStyle=orthogonalEdgeStyle;rounded=0;orthogonalLoop=1;jettySize=auto;html=1;fontFamily=Helvetica;entryX=0;entryY=0.5;entryDx=0;entryDy=0;" parent="WIyWlLk6GJQsqaUBKTNV-1" source="SrfCFyk_OWExMf_Ezm0Z-0" target="B09EAlC1C30y0xCF8Pgo-1" edge="1">
          <mxGeometry relative="1" as="geometry">
            <mxPoint x="250" y="100" as="targetPoint" />
            <Array as="points" />
          </mxGeometry>
        </mxCell>
        <mxCell id="SrfCFyk_OWExMf_Ezm0Z-0" value="cliente" style="shape=umlActor;verticalLabelPosition=bottom;verticalAlign=top;html=1;outlineConnect=0;" parent="WIyWlLk6GJQsqaUBKTNV-1" vertex="1">
          <mxGeometry x="235" width="30" height="60" as="geometry" />
        </mxCell>
        <mxCell id="SrfCFyk_OWExMf_Ezm0Z-9" style="edgeStyle=orthogonalEdgeStyle;rounded=0;orthogonalLoop=1;jettySize=auto;html=1;fontFamily=Helvetica;dashed=1;entryX=0.5;entryY=0;entryDx=0;entryDy=0;exitX=0.5;exitY=1;exitDx=0;exitDy=0;" parent="WIyWlLk6GJQsqaUBKTNV-1" source="B09EAlC1C30y0xCF8Pgo-1" edge="1" target="SrfCFyk_OWExMf_Ezm0Z-7">
          <mxGeometry relative="1" as="geometry">
            <mxPoint x="310" y="75" as="targetPoint" />
            <mxPoint x="250" y="210" as="sourcePoint" />
          </mxGeometry>
        </mxCell>
        <mxCell id="SrfCFyk_OWExMf_Ezm0Z-7" value="Escanea Codigo de barras" style="ellipse;whiteSpace=wrap;html=1;fontFamily=Helvetica;" parent="WIyWlLk6GJQsqaUBKTNV-1" vertex="1">
          <mxGeometry x="330" y="60" width="120" height="80" as="geometry" />
        </mxCell>
        <mxCell id="B09EAlC1C30y0xCF8Pgo-5" style="edgeStyle=orthogonalEdgeStyle;rounded=0;orthogonalLoop=1;jettySize=auto;html=1;exitX=0.5;exitY=0.5;exitDx=0;exitDy=0;exitPerimeter=0;entryX=0.5;entryY=0;entryDx=0;entryDy=0;dashed=1;" edge="1" parent="WIyWlLk6GJQsqaUBKTNV-1" source="SrfCFyk_OWExMf_Ezm0Z-10" target="B09EAlC1C30y0xCF8Pgo-4">
          <mxGeometry relative="1" as="geometry">
            <Array as="points">
              <mxPoint x="570" y="60" />
            </Array>
          </mxGeometry>
        </mxCell>
        <mxCell id="SrfCFyk_OWExMf_Ezm0Z-10" value="sistema" style="shape=umlActor;verticalLabelPosition=bottom;verticalAlign=top;html=1;outlineConnect=0;fontFamily=Helvetica;" parent="WIyWlLk6GJQsqaUBKTNV-1" vertex="1">
          <mxGeometry x="520" y="30" width="30" height="60" as="geometry" />
        </mxCell>
        <mxCell id="B09EAlC1C30y0xCF8Pgo-1" value="Elegir idioma" style="ellipse;whiteSpace=wrap;html=1;" vertex="1" parent="WIyWlLk6GJQsqaUBKTNV-1">
          <mxGeometry x="330" y="20" width="120" height="20" as="geometry" />
        </mxCell>
        <mxCell id="B09EAlC1C30y0xCF8Pgo-28" style="edgeStyle=orthogonalEdgeStyle;rounded=0;orthogonalLoop=1;jettySize=auto;html=1;exitX=0.5;exitY=1;exitDx=0;exitDy=0;entryX=0.5;entryY=0;entryDx=0;entryDy=0;entryPerimeter=0;" edge="1" parent="WIyWlLk6GJQsqaUBKTNV-1" source="B09EAlC1C30y0xCF8Pgo-4" target="B09EAlC1C30y0xCF8Pgo-8">
          <mxGeometry relative="1" as="geometry" />
        </mxCell>
        <mxCell id="B09EAlC1C30y0xCF8Pgo-4" value="Busca producto en base de datos" style="ellipse;whiteSpace=wrap;html=1;" vertex="1" parent="WIyWlLk6GJQsqaUBKTNV-1">
          <mxGeometry x="510" y="140" width="120" height="50" as="geometry" />
        </mxCell>
        <mxCell id="B09EAlC1C30y0xCF8Pgo-6" value="Si no existe bloquea&amp;nbsp;" style="ellipse;whiteSpace=wrap;html=1;" vertex="1" parent="WIyWlLk6GJQsqaUBKTNV-1">
          <mxGeometry x="670" y="150" width="120" height="30" as="geometry" />
        </mxCell>
        <mxCell id="B09EAlC1C30y0xCF8Pgo-7" value="" style="endArrow=classic;html=1;rounded=0;dashed=1;entryX=0;entryY=0.5;entryDx=0;entryDy=0;" edge="1" parent="WIyWlLk6GJQsqaUBKTNV-1" target="B09EAlC1C30y0xCF8Pgo-6">
          <mxGeometry width="50" height="50" relative="1" as="geometry">
            <mxPoint x="630" y="170" as="sourcePoint" />
            <mxPoint x="670" y="210" as="targetPoint" />
            <Array as="points">
              <mxPoint x="630" y="170" />
            </Array>
          </mxGeometry>
        </mxCell>
        <mxCell id="B09EAlC1C30y0xCF8Pgo-29" style="edgeStyle=orthogonalEdgeStyle;rounded=0;orthogonalLoop=1;jettySize=auto;html=1;exitX=0;exitY=0.3333333333333333;exitDx=0;exitDy=0;exitPerimeter=0;entryX=1;entryY=0.5;entryDx=0;entryDy=0;dashed=1;" edge="1" parent="WIyWlLk6GJQsqaUBKTNV-1" source="B09EAlC1C30y0xCF8Pgo-8" target="B09EAlC1C30y0xCF8Pgo-15">
          <mxGeometry relative="1" as="geometry" />
        </mxCell>
        <mxCell id="B09EAlC1C30y0xCF8Pgo-8" value="Empleado" style="shape=umlActor;verticalLabelPosition=bottom;verticalAlign=top;html=1;outlineConnect=0;" vertex="1" parent="WIyWlLk6GJQsqaUBKTNV-1">
          <mxGeometry x="555" y="220" width="30" height="60" as="geometry" />
        </mxCell>
        <mxCell id="B09EAlC1C30y0xCF8Pgo-15" value="Regustra la compra&amp;nbsp;" style="ellipse;whiteSpace=wrap;html=1;" vertex="1" parent="WIyWlLk6GJQsqaUBKTNV-1">
          <mxGeometry x="359" y="220" width="110" height="45" as="geometry" />
        </mxCell>
        <mxCell id="B09EAlC1C30y0xCF8Pgo-23" value="" style="edgeStyle=orthogonalEdgeStyle;rounded=0;orthogonalLoop=1;jettySize=auto;html=1;dashed=1;" edge="1" parent="WIyWlLk6GJQsqaUBKTNV-1" source="B09EAlC1C30y0xCF8Pgo-16" target="B09EAlC1C30y0xCF8Pgo-22">
          <mxGeometry relative="1" as="geometry" />
        </mxCell>
        <mxCell id="B09EAlC1C30y0xCF8Pgo-16" value="Cliente" style="shape=umlActor;verticalLabelPosition=bottom;verticalAlign=top;html=1;outlineConnect=0;" vertex="1" parent="WIyWlLk6GJQsqaUBKTNV-1">
          <mxGeometry x="235" y="220" width="30" height="60" as="geometry" />
        </mxCell>
        <mxCell id="B09EAlC1C30y0xCF8Pgo-18" value="" style="endArrow=classic;html=1;rounded=0;entryX=1;entryY=0.3333333333333333;entryDx=0;entryDy=0;entryPerimeter=0;" edge="1" parent="WIyWlLk6GJQsqaUBKTNV-1" source="B09EAlC1C30y0xCF8Pgo-15" target="B09EAlC1C30y0xCF8Pgo-16">
          <mxGeometry width="50" height="50" relative="1" as="geometry">
            <mxPoint x="380" y="230" as="sourcePoint" />
            <mxPoint x="490" y="190" as="targetPoint" />
          </mxGeometry>
        </mxCell>
        <mxCell id="B09EAlC1C30y0xCF8Pgo-19" value="sige comprando" style="ellipse;whiteSpace=wrap;html=1;" vertex="1" parent="WIyWlLk6GJQsqaUBKTNV-1">
          <mxGeometry x="210" y="110" width="80" height="40" as="geometry" />
        </mxCell>
        <mxCell id="B09EAlC1C30y0xCF8Pgo-20" value="" style="endArrow=classic;html=1;rounded=0;exitX=0.5;exitY=0;exitDx=0;exitDy=0;exitPerimeter=0;entryX=0.5;entryY=1;entryDx=0;entryDy=0;" edge="1" parent="WIyWlLk6GJQsqaUBKTNV-1" source="B09EAlC1C30y0xCF8Pgo-16" target="B09EAlC1C30y0xCF8Pgo-19">
          <mxGeometry width="50" height="50" relative="1" as="geometry">
            <mxPoint x="440" y="240" as="sourcePoint" />
            <mxPoint x="490" y="190" as="targetPoint" />
          </mxGeometry>
        </mxCell>
        <mxCell id="B09EAlC1C30y0xCF8Pgo-21" value="" style="endArrow=classic;html=1;rounded=0;exitX=1;exitY=0.5;exitDx=0;exitDy=0;entryX=0;entryY=0.5;entryDx=0;entryDy=0;dashed=1;" edge="1" parent="WIyWlLk6GJQsqaUBKTNV-1" source="B09EAlC1C30y0xCF8Pgo-19" target="SrfCFyk_OWExMf_Ezm0Z-7">
          <mxGeometry width="50" height="50" relative="1" as="geometry">
            <mxPoint x="440" y="240" as="sourcePoint" />
            <mxPoint x="490" y="190" as="targetPoint" />
          </mxGeometry>
        </mxCell>
        <mxCell id="B09EAlC1C30y0xCF8Pgo-31" style="edgeStyle=orthogonalEdgeStyle;rounded=0;orthogonalLoop=1;jettySize=auto;html=1;" edge="1" parent="WIyWlLk6GJQsqaUBKTNV-1" source="B09EAlC1C30y0xCF8Pgo-22" target="B09EAlC1C30y0xCF8Pgo-30">
          <mxGeometry relative="1" as="geometry" />
        </mxCell>
        <mxCell id="B09EAlC1C30y0xCF8Pgo-22" value="Realizar pago" style="ellipse;whiteSpace=wrap;html=1;" vertex="1" parent="WIyWlLk6GJQsqaUBKTNV-1">
          <mxGeometry x="220" y="340" width="60" height="40" as="geometry" />
        </mxCell>
        <mxCell id="B09EAlC1C30y0xCF8Pgo-24" value="" style="endArrow=classic;html=1;rounded=0;exitX=1;exitY=0.5;exitDx=0;exitDy=0;entryX=0.5;entryY=0.5;entryDx=0;entryDy=0;entryPerimeter=0;" edge="1" parent="WIyWlLk6GJQsqaUBKTNV-1" source="SrfCFyk_OWExMf_Ezm0Z-7" target="SrfCFyk_OWExMf_Ezm0Z-10">
          <mxGeometry width="50" height="50" relative="1" as="geometry">
            <mxPoint x="440" y="240" as="sourcePoint" />
            <mxPoint x="490" y="190" as="targetPoint" />
          </mxGeometry>
        </mxCell>
        <mxCell id="B09EAlC1C30y0xCF8Pgo-33" style="edgeStyle=orthogonalEdgeStyle;rounded=0;orthogonalLoop=1;jettySize=auto;html=1;exitX=0.5;exitY=0.5;exitDx=0;exitDy=0;exitPerimeter=0;entryX=0;entryY=0.5;entryDx=0;entryDy=0;dashed=1;" edge="1" parent="WIyWlLk6GJQsqaUBKTNV-1" source="B09EAlC1C30y0xCF8Pgo-30" target="B09EAlC1C30y0xCF8Pgo-32">
          <mxGeometry relative="1" as="geometry" />
        </mxCell>
        <mxCell id="B09EAlC1C30y0xCF8Pgo-30" value="sistema" style="shape=umlActor;verticalLabelPosition=bottom;verticalAlign=top;html=1;outlineConnect=0;fontFamily=Helvetica;" vertex="1" parent="WIyWlLk6GJQsqaUBKTNV-1">
          <mxGeometry x="330" y="330" width="30" height="60" as="geometry" />
        </mxCell>
        <mxCell id="B09EAlC1C30y0xCF8Pgo-35" style="edgeStyle=orthogonalEdgeStyle;rounded=0;orthogonalLoop=1;jettySize=auto;html=1;exitX=1;exitY=0.5;exitDx=0;exitDy=0;dashed=1;" edge="1" parent="WIyWlLk6GJQsqaUBKTNV-1" source="B09EAlC1C30y0xCF8Pgo-32" target="B09EAlC1C30y0xCF8Pgo-34">
          <mxGeometry relative="1" as="geometry" />
        </mxCell>
        <mxCell id="B09EAlC1C30y0xCF8Pgo-37" style="edgeStyle=orthogonalEdgeStyle;rounded=0;orthogonalLoop=1;jettySize=auto;html=1;exitX=0.5;exitY=1;exitDx=0;exitDy=0;entryX=0.5;entryY=0;entryDx=0;entryDy=0;dashed=1;" edge="1" parent="WIyWlLk6GJQsqaUBKTNV-1" source="B09EAlC1C30y0xCF8Pgo-32" target="B09EAlC1C30y0xCF8Pgo-36">
          <mxGeometry relative="1" as="geometry" />
        </mxCell>
        <mxCell id="B09EAlC1C30y0xCF8Pgo-32" value="Si es en efectivo solicitar pago solo en villetes&amp;nbsp;" style="ellipse;whiteSpace=wrap;html=1;" vertex="1" parent="WIyWlLk6GJQsqaUBKTNV-1">
          <mxGeometry x="400" y="330" width="120" height="60" as="geometry" />
        </mxCell>
        <mxCell id="B09EAlC1C30y0xCF8Pgo-34" value="si el pago es admitido imprime recibo y devuelve el cambio" style="ellipse;whiteSpace=wrap;html=1;" vertex="1" parent="WIyWlLk6GJQsqaUBKTNV-1">
          <mxGeometry x="555" y="320" width="120" height="80" as="geometry" />
        </mxCell>
        <mxCell id="B09EAlC1C30y0xCF8Pgo-38" style="edgeStyle=orthogonalEdgeStyle;rounded=0;orthogonalLoop=1;jettySize=auto;html=1;exitX=0;exitY=0.5;exitDx=0;exitDy=0;dashed=1;entryX=0;entryY=0.3333333333333333;entryDx=0;entryDy=0;entryPerimeter=0;" edge="1" parent="WIyWlLk6GJQsqaUBKTNV-1" source="B09EAlC1C30y0xCF8Pgo-36" target="B09EAlC1C30y0xCF8Pgo-16">
          <mxGeometry relative="1" as="geometry">
            <mxPoint x="210" y="200" as="targetPoint" />
            <Array as="points">
              <mxPoint x="160" y="425" />
              <mxPoint x="160" y="240" />
            </Array>
          </mxGeometry>
        </mxCell>
        <mxCell id="B09EAlC1C30y0xCF8Pgo-36" value="Rechaza pago" style="ellipse;whiteSpace=wrap;html=1;" vertex="1" parent="WIyWlLk6GJQsqaUBKTNV-1">
          <mxGeometry x="400" y="410" width="120" height="30" as="geometry" />
        </mxCell>
      </root>
    </mxGraphModel>
  </diagram>
</mxfile>
